<svg xmlns="http://www.w3.org/2000/svg"  viewBox="0 0 621.755 463.541"><defs><style>.a{fill:#fff;}.b{fill:#fec62a;}.c{fill:#3f3d56;}.d{fill:#f2f2f2;}.e{fill:#a0616a;}.f{fill:#2f2e41;}</style></defs><g transform="translate(0)"><path class="a" d="M879.3,480.95a1.692,1.692,0,0,1-1.25,1.13,65.22,65.22,0,0,0-14.08,5.5,68.406,68.406,0,0,0-17.53,13.25c-.27.27-.53.54-.78.82-.42.44-.82.89-1.22,1.35v-4.36c.64-.68,1.31-1.35,2-1.99a71.911,71.911,0,0,1,13.27-10.04Q869.371,483.31,879.3,480.95Z" transform="translate(-257.546 -226.073)"/><path class="a" d="M858.432,325.63a1.076,1.076,0,0,1-.11.28q-6.075,11.805-11.88,23.73c-.67,1.37-1.34,2.75-2,4.12v-6.8q.99-2.04,2-4.08,4.485-9.09,9.12-18.1a1.307,1.307,0,0,1,.12-.2C856.6,323.26,858.881,324.16,858.432,325.63Z" transform="translate(-257.546 -197.158)"/><path class="b" d="M762.336,200.5v76h-1.75v-.81h-585.4v.81h-1.75v-76c.016-18.218,12.935-32.982,28.876-33H733.46C749.4,167.518,762.321,182.282,762.336,200.5Z" transform="translate(-173.441 -167.5)"/><path class="c" d="M733.46,167.5H202.317c-15.941.014-28.86,11.782-28.876,26.3V539.737c.016,14.521,12.935,26.289,28.876,26.3H733.46c15.941-.014,28.86-11.783,28.876-26.3V193.8C762.321,179.282,749.4,167.514,733.46,167.5Zm27.126,372.237c-.019,13.639-12.153,24.692-27.126,24.709H202.317c-14.973-.017-27.107-11.07-27.126-24.71V193.8c.019-13.639,12.153-24.692,27.126-24.71H733.46c14.973.017,27.107,11.07,27.126,24.71Z" transform="translate(-173.441 -167.5)"/><circle class="a" cx="20" cy="20" r="20" transform="translate(101.348 34.5)"/><circle class="a" cx="20" cy="20" r="20" transform="translate(451.698 34.5)"/><path class="b" d="M367.226,445H248.25a19.033,19.033,0,0,1-19.011-19.011V369.758a19.033,19.033,0,0,1,19.011-19.011H367.226a19.033,19.033,0,0,1,19.011,19.011v56.233A19.033,19.033,0,0,1,367.226,445Z" transform="translate(-173.441 -206.995)"/><path class="b" d="M569.624,445H450.648a19.033,19.033,0,0,1-19.011-19.011V369.758a19.033,19.033,0,0,1,19.011-19.011H569.624a19.033,19.033,0,0,1,19.011,19.011v56.233A19.033,19.033,0,0,1,569.624,445Z" transform="translate(-213.006 -206.995)"/><path class="d" d="M569.624,590.293H450.648a19.61,19.61,0,0,1-19.588-19.588V514.473a19.61,19.61,0,0,1,19.587-19.588H569.624a19.61,19.61,0,0,1,19.588,19.588v56.233a19.61,19.61,0,0,1-19.588,19.587Z" transform="translate(-213.001 -238.234)"/><path class="d" d="M366.836,590.293H247.86a19.61,19.61,0,0,1-19.588-19.587V514.473a19.61,19.61,0,0,1,19.588-19.588H366.836a19.61,19.61,0,0,1,19.588,19.588v56.233a19.609,19.609,0,0,1-19.587,19.587Z" transform="translate(-173.441 -238.234)"/><path class="d" d="M772.023,590.293H653.047a19.61,19.61,0,0,1-19.587-19.588V514.473a19.61,19.61,0,0,1,19.588-19.588H772.023a19.61,19.61,0,0,1,19.588,19.588v56.233A19.609,19.609,0,0,1,772.023,590.293Z" transform="translate(-257.546 -238.234)"/><path class="d" d="M772.023,445.115H653.047a19.61,19.61,0,0,1-19.587-19.587V369.294a19.61,19.61,0,0,1,19.588-19.587H772.023a19.61,19.61,0,0,1,19.588,19.588v56.233A19.609,19.609,0,0,1,772.023,445.115Z" transform="translate(-257.546 -206.867)"/><circle class="a" cx="32.262" cy="32.262" r="32.262" transform="translate(102.035 157.95)"/><path d="M304.54,410.181a3.346,3.346,0,0,1-2.013-.669l-.036-.027-7.582-5.8a3.368,3.368,0,0,1,4.1-5.348l4.911,3.766,11.605-15.135a3.368,3.368,0,0,1,4.723-.623l-.072.1.074-.1a3.372,3.372,0,0,1,.623,4.723l-13.651,17.8a3.37,3.37,0,0,1-2.68,1.315Z" transform="translate(-173.348 -208.451)"/><circle class="a" cx="32.262" cy="32.262" r="32.262" transform="translate(265.01 157.581)"/><path d="M507.515,409.718a3.346,3.346,0,0,1-2.013-.669l-.036-.027-7.582-5.8a3.368,3.368,0,1,1,4.1-5.348l4.911,3.766L518.5,386.5a3.368,3.368,0,0,1,4.723-.623l-.072.1.074-.1a3.372,3.372,0,0,1,.623,4.723l-13.651,17.8a3.37,3.37,0,0,1-2.68,1.315Z" transform="translate(-213.531 -208.364)"/><path class="e" d="M728.754,549.65a10.743,10.743,0,0,0-2.183-16.327L708.56,437.15l-21.9,8.123,24.592,91.98a10.8,10.8,0,0,0,17.506,12.4Z" transform="translate(-238.747 -228.441)"/><path class="e" d="M553.969,402.9a11.414,11.414,0,0,1,.022,1.8l42.59,32.78,12.078-4.96,9.867,17.249L598,460.623A8.669,8.669,0,0,1,587.721,459L545.15,415.106a11.376,11.376,0,1,1,8.819-12.206Z" transform="translate(-222.091 -213.552)"/><path class="e" d="M480.028,552.849H467.769l-5.833-37.288h18.1Z" transform="translate(-56.489 -101.459)"/><path class="f" d="M656.6,732.233H617.065v-.5a15.386,15.386,0,0,1,15.386-15.386H656.6Z" transform="translate(-229.436 -268.959)"/><path class="e" d="M526.028,552.849H513.769l-5.833-37.288h18.1Z" transform="translate(-62.114 -101.459)"/><path class="f" d="M702.6,732.233H663.065v-.5a15.386,15.386,0,0,1,15.386-15.386H702.6Z" transform="translate(-235.242 -268.959)"/><path d="M638.664,712.979a4.49,4.49,0,0,1-4.475-4.072L623.506,565.218l.5-.041,73.521-6.043.02.522L703.4,708.507a4.5,4.5,0,0,1-4.5,4.668H684.483a4.475,4.475,0,0,1-4.447-3.815L660.46,589.114a.5.5,0,0,0-.994.072l-.888,118.724a4.5,4.5,0,0,1-4.263,4.462l-15.409.6C638.825,712.977,638.744,712.979,638.664,712.979Z" transform="translate(-233.912 -268.959)"/><circle class="e" cx="24.561" cy="24.561" r="24.561" transform="translate(395.171 134.158)"/><path class="b" d="M654.75,517.514a163.7,163.7,0,0,1-30.786-2.967c-1.99-.408-3.3-1.746-3.136-3.2,3.2-33.955,3.958-60.3-2.78-78.536a22.75,22.75,0,0,1,3.577-22.453c7.743-9.78,21.975-15.732,37.155-15.527h0q1.088.015,2.2.055c23.038.836,40.99,15.531,40.018,32.758l-4.634,82.109c-.035,1.225-1.111,2.315-2.728,2.763A152.613,152.613,0,0,1,654.75,517.514Z" transform="translate(-233.678 -214.338)"/><path class="b" d="M616.485,449.759,603.366,431.71a5.033,5.033,0,0,1-.863-3.717,4.649,4.649,0,0,1,1.943-3.162l17.771-11.889c4.894-4.457,12.079-3.616,16.049,1.878a13.907,13.907,0,0,1-1.673,18.019L622.7,449.95a3.908,3.908,0,0,1-3.148,1.5,3.965,3.965,0,0,1-3.07-1.695Z" transform="translate(-231.776 -208.446)"/><path class="b" d="M680.011,456.812a5.755,5.755,0,0,1-3.164-3.606L668.565,425.5a16,16,0,0,1,28.944-13.652l16.016,24.188a5.762,5.762,0,0,1-2.361,8.4l-26.354,12.336a5.755,5.755,0,0,1-4.8.04Z" transform="matrix(0.995, -0.105, 0.105, 0.995, -275.655, -141.693)"/><path class="f" d="M663.35,379.217l-18.206-4.167c-1.878-.43-4.134-1.25-4.395-3.159-.35-2.565,3.341-4.352,3-6.919-.33-2.486-3.693-2.806-6.09-3.54a9.111,9.111,0,0,1-5.672-11.34c-2.594,3.656-8.522,3.969-11.887,1.007s-4.01-8.336-1.99-12.338a14.287,14.287,0,0,1,10.724-7.241,22.616,22.616,0,0,1,13.023,2.428c.267-2.833,3.8-3.982,6.65-4.007a28.431,28.431,0,0,1,26.643,19.446c3.492,11.252,1.156,23.586-8.614,30.17Z" transform="translate(-231.172 -199.478)"/><path class="c" d="M846.729,732.5h-381a1,1,0,0,1,0-2h381a1,1,0,0,1,0,2Z" transform="translate(-257.546 -268.959)"/></g></svg>