<svg xmlns="http://www.w3.org/2000/svg"  viewBox="0 0 624.403 401.831"><defs><style>.a{fill:#a0616a;}.b{fill:#fec62a;}.c{fill:#f2f2f2;}.d{font-size:35px;font-family:SegoeUI-Bold, Segoe UI;font-weight:700;}</style></defs><g transform="translate(-1084.199 -2577.799)"><g transform="translate(992 2400.748)"><path class="a" d="M829.7,303.812s2.6,35.091,2.6,36.391-18.2,90.977-18.2,90.977-25.993,49.387,0,48.088,18.2-46.788,18.2-46.788L859.594,357.1l-11.7-53.286Z" transform="translate(-179 -110.812)"/><rect class="b" width="516.463" height="362.798" transform="translate(159.169 216.084)"/><rect width="121.678" height="191.374" transform="translate(189.645 387.508)"/><rect class="c" width="34.932" height="32.563" transform="translate(208.632 411.554)"/><rect class="c" width="34.932" height="32.563" transform="translate(260.405 411.554)"/><rect class="c" width="34.932" height="33.748" transform="translate(208.632 454.066)"/><rect class="c" width="34.932" height="33.748" transform="translate(260.405 454.066)"/><circle class="b" cx="8.245" cy="8.245" r="8.245" transform="translate(294.587 505.876)"/><rect width="245.357" height="164.13" transform="translate(362.799 401.019)"/><path class="b" d="M716.6,351.134H92.2l41.632-87.042,9.317-19.489,12.189-25.486,9.317-19.489,10.8-22.577H667.407l6.379,22.577,5.509,19.489,7.2,25.486,5.509,19.489Z"/><rect class="c" width="245.357" height="5.247" transform="translate(362.799 477.739)"/><path d="M679.295,219.117H155.337l9.317-19.489H673.786Z"/><path d="M692.008,264.092H133.831l9.317-19.489H686.5Z"/></g><text class="d" transform="translate(1271 2727)"><tspan x="0" y="0">LUGGAGE ROOM</tspan></text></g></svg>