<svg xmlns="http://www.w3.org/2000/svg"  viewBox="0 0 355.076 439.244"><defs><style>.a{fill:#3f3d56;}.b{fill:#6c63ff;}.c{fill:#ffb7b7;}.d{fill:#2f2e41;}.e{fill:#cbcbcb;}.f{fill:#fff;}.g{fill:#e5e5e5;}.h{fill:#fec62a;}</style></defs><g transform="translate(86.486)"><path class="a" d="M770.3,711.765l-1.073-.4c-.236-.089-23.708-9.082-34.7-29.474s-5.612-44.945-5.556-45.19l.253-1.118,1.073.4c.236.089,23.708,9.082,34.7,29.474s5.612,44.945,5.556,45.19ZM736.279,680.94c9.3,17.241,27.845,26.079,32.545,28.1.894-5.037,3.7-25.406-5.592-42.631s-27.843-26.074-32.545-28.1C729.793,643.349,726.992,663.716,736.279,680.94Z" transform="translate(-623.896 -273.469)"/><path class="b" d="M742.922,674.736c19.761,11.889,27.371,35.5,27.371,35.5s-24.428,4.339-44.188-7.55-27.371-35.5-27.371-35.5S723.161,662.847,742.922,674.736Z" transform="translate(-623.896 -273.469)"/><path class="c" d="M424.792,381.964a12.52,12.52,0,0,1,18.46-2.877,11.917,11.917,0,0,1,1.21,1.155l49.211-7.164,2.739-37.005a10.733,10.733,0,1,1,21.409,1.581q-.007.1-.016.2l-4.8,51.925-.023.116a9.724,9.724,0,0,1-9.395,6.82l-57.883-1a11.729,11.729,0,0,1-.726.992,12.521,12.521,0,0,1-18.668.764q-.374-.383-.708-.791a12.56,12.56,0,0,1-.812-14.714Z" transform="translate(-371.027 -139.886)"/><path class="c" d="M524.006,697.479H509.97l-6.677-54.137h20.715Z" transform="translate(-399.858 -273.469)"/><path class="d" d="M527.585,711.084l-45.257,0v-.572A17.616,17.616,0,0,1,499.942,692.9h27.644Z" transform="translate(-395.565 -273.469)"/><path class="c" d="M622.082,684.754l-13.284,4.53L585,640.2l19.607-6.687Z" transform="translate(-474.666 -273.469)"/><path class="d" d="M629.862,696.475l-42.834,14.609-.185-.542a17.616,17.616,0,0,1,10.985-22.358h0l26.161-8.923Z" transform="translate(-479.688 -273.469)"/><path class="d" d="M539.461,224.126s-13.97-4.614-22.951,13.841-22.951,38.754-22.951,38.754l7.983,1.845s2-12.918,6.985-14.763l-2,16.609s59.871,19.377,86.813-1.845l-1-6.459s3.991.923,3.991,6.459l2.994-2.768s-2.994-5.536-11.974-12.918c-5.895-4.845-7.92-14.063-8.616-19.826a23.1,23.1,0,0,0-5.973-13.065C566.8,223.593,555.926,216.795,539.461,224.126Z" transform="translate(-439.757 -93.655)"/><circle class="c" cx="25.515" cy="25.515" r="25.515" transform="translate(90.122 139.386)"/><path class="e" d="M510.59,309.613l-4.639-1.546s-9.278,3.866-9.278,10.825-1.546,34.793-1.546,34.793L516,356Z" transform="translate(-393.451 -126.729)"/><path class="c" d="M593.622,461.7a12.064,12.064,0,0,1-.276-15.744L580.323,336.887a9.722,9.722,0,1,1,19.418-1q0,.053,0,.107L611.4,445.176a11.717,11.717,0,0,1,1.165,1.363,12.144,12.144,0,0,1-2.724,16.956q-.2.145-.407.282h0a12.155,12.155,0,0,1-10.27,1.485,12.007,12.007,0,0,1-5.537-3.566Z" transform="translate(-469.318 -155.745)"/><path class="e" d="M581.7,353.685l20.876-2.32s-1.546-27.835-1.546-34.793-9.278-10.825-9.278-10.825l-4.639,1.546Z" transform="translate(-462.242 -125.775)"/><path class="d" d="M513.683,392.3S495.9,424.817,495.9,464.25s-1.547,220.359-1.547,220.359,23.2,10.825,37.113-2.32l12.371-200.256,48.711,196.39s23.2,4.639,34.02-3.093L605.692,538.477s-8.505-128.349-31.7-137.627S513.683,392.3,513.683,392.3Z" transform="translate(-457.75 -273.469)"/><path class="d" d="M517.039,263.249c9.033-6.537,16.344-14.066,21.181-23.023,0,0,16.576,18.418,26.706,19.339s.921-22.1.921-22.1l-18.418-4.6-17.5,1.842-13.814,9.209Z" transform="translate(-427.948 -93.328)"/><path class="e" d="M570.126,301.108s.736-.4-43.3,1.209L508.4,307.392l-2.449.675s2.32,46.391,8.505,54.9,4.639,13.144,3.093,13.917-5.412-.773-3.093,3.093,5.412,1.546,2.32,3.866-4.639,10.825-4.639,10.825l68.041,9.278s2.32-30.154,8.505-45.618,7.732-21.649,7.732-21.649l-4.639-30.927Z" transform="translate(-441.153 -135.007)"/><path d="M440.767,104.237h-3.913V38.213C436.854,17.108,409.079,0,374.817,0H147.728C113.465,0,85.691,17.109,85.691,38.213V400.426c0,21.1,27.775,38.213,62.037,38.213H374.817c34.262,0,62.037-17.108,62.037-38.213h0V151.234h3.913Z" transform="translate(-172.177 0)"/><path class="f" d="M423.651,43.836V394.81c.023,15.281-20.683,27.68-46.247,27.693H149.141c-25.569.011-46.312-12.37-46.33-27.654V43.836c-.018-15.284,20.7-27.682,46.265-27.693h27.745c-2.768,4.057-1.976,8.671,2.113,12.307s10.938,5.817,18.267,5.816H327.3c7.332,0,14.18-2.181,18.268-5.817s4.88-8.249,2.112-12.306h29.64c25.564-.014,46.307,12.363,46.33,27.644v.05Z" transform="translate(-172.179 0)"/><path class="g" d="M423.651,95.762V83.807h-30.27V17.852a74.611,74.611,0,0,0-16.06-1.71h-3.94V83.807h-105V34.266h-20V83.807h-88V16.143h-11.24a76,76,0,0,0-8.76.5V83.807h-37.57V95.762h37.57v27.652l-37.57,12.965v13.808l37.569-12.965v82.272H102.811v11.955h37.57V350.4h-37.57v11.955h37.57v59.655a76.034,76.034,0,0,0,8.76.5h11.24V362.354h88V422.5h20V362.354h105V422.5h3.94a74.609,74.609,0,0,0,16.06-1.71V362.354h30.27V350.4h-30.27v-52h30V286.441h-30V231.449h30.27V219.494h-30.27V146.57h30.27V134.615h-30.27V95.762Zm-203.139,0h0l-60.13,20.754h0V95.762Zm-60.131,34.556h0l88-30.371V219.494h-88Zm0,220.081V231.448h88V350.4Zm213,0h-105v-52h105Zm0-63.958h-105V231.448h105Zm0-66.947h-105V146.569h105Zm0-84.879h-105V95.762h105Z" transform="translate(-172.179 0)"/><path class="h" d="M440.381,214.713c0,63.513-115,205-115,205s-115-141.487-115-205a115,115,0,1,1,230,0Z" transform="translate(-234.329 -24.099)"/><path class="f" d="M393.382,209.713a68,68,0,1,1-68-68h0a67.969,67.969,0,0,1,68,67.938Z" transform="translate(-235.671 -28.198)"/><circle cx="25.333" cy="25.333" r="25.333" transform="translate(66.171 145.104)"/><path d="M361.912,269.083a68.072,68.072,0,0,1-73.07-.01,38,38,0,0,1,73.068.005Z" transform="translate(-231.873 -51.92)"/><path class="e" d="M181.878,712.713H.226c-.125,0-.226-.448-.226-1s.1-1,.226-1H181.878c.125,0,.226.448.226,1S182,712.713,181.878,712.713Z" transform="translate(0 -273.469)"/></g></svg>